/* XPM */
static char * c:\eliasson\Programmering\quickrdp\data\connectionchecker_xpm[] = {
"16 16 19 1",
" 	c None",
".	c #9F1A0A",
"+	c #F68A7D",
"@	c #9A1909",
"#	c #F57C6E",
"$	c #941809",
"%	c #F57E70",
"&	c #8B1708",
"*	c #F46C5B",
"=	c #811508",
"-	c #F35946",
";	c #761307",
">	c #F1432E",
",	c #6E1207",
"'	c #F03119",
")	c #631006",
"!	c #E5260E",
"~	c #5A0E05",
"{	c #D8230D",
"                ",
"                ",
"   ......   .   ",
"  .+++++.  .+.  ",
" @###+@@@ @+++@ ",
" $###$   $++#%#$",
" &***&   &&***&&",
" =---=    =---= ",
";;>>>;;   ;>>>; ",
",''''',   ,''', ",
" )!!!) )))!!!)  ",
"  ~{)  ~{{{{~   ",
"   ~   ~~~~~    ",
"                ",
"                ",
"                "};
