/* XPM */
static char * sign_ok_xpm[] = {
"16 16 10 1",
" 	c None",
".	c #1AA200",
"+	c #83CE77",
"@	c #7CCD6F",
"#	c #FFFFFF",
"$	c #73CC63",
"%	c #68CA56",
"&	c #5CC948",
"*	c #53C83C",
"=	c #4CC734",
"                ",
"    ........    ",
"   ..++++++..   ",
"  ..++++++++..  ",
" ..++++++++++.. ",
" .++++++++++++. ",
" .@@@@@@@@#@@@. ",
" .$$$$$$$##$$$. ",
" .%%%##%##%%%%. ",
" .&&&&###&&&&&. ",
" .*****#******. ",
" ..==========.. ",
"  ..========..  ",
"   ..======..   ",
"    ........    ",
"                "};
