/* XPM */
static char * QuickRDP_xpm[] = {
"48 48 755 2",
"  	c None",
". 	c #B5B7B1",
"+ 	c #B3B7AF",
"@ 	c #B3B6AF",
"# 	c #B2B5AE",
"$ 	c #B0B3AD",
"% 	c #AFB2AB",
"& 	c #AEB1AA",
"* 	c #ADB0A9",
"= 	c #ACAFA8",
"- 	c #ABADA7",
"; 	c #A9ACA6",
"> 	c #A8ABA5",
", 	c #A7AAA4",
"' 	c #A6A9A3",
") 	c #A6A7A1",
"! 	c #A5A6A0",
"~ 	c #A3A59F",
"{ 	c #A1A49E",
"] 	c #A0A39D",
"^ 	c #9FA19B",
"/ 	c #9EA09A",
"( 	c #9C9F99",
"_ 	c #9B9E98",
": 	c #9A9D97",
"< 	c #999C96",
"[ 	c #989B95",
"} 	c #979993",
"| 	c #959892",
"1 	c #949791",
"2 	c #939690",
"3 	c #92958F",
"4 	c #91938E",
"5 	c #90928C",
"6 	c #8E918B",
"7 	c #8D908A",
"8 	c #8C8F89",
"9 	c #8B8D88",
"0 	c #8A8C87",
"a 	c #898B86",
"b 	c #878A84",
"c 	c #868983",
"d 	c #858882",
"e 	c #848681",
"f 	c #838580",
"g 	c #82847F",
"h 	c #81857E",
"i 	c #EEEFEE",
"j 	c #F4F5F3",
"k 	c #F5F5F4",
"l 	c #F6F6F5",
"m 	c #F6F6F6",
"n 	c #F6F7F6",
"o 	c #F7F7F6",
"p 	c #F7F8F7",
"q 	c #F8F8F7",
"r 	c #F8F8F8",
"s 	c #F9F9F8",
"t 	c #F4F4F3",
"u 	c #F2F3F1",
"v 	c #F1F1F1",
"w 	c #F0F1EF",
"x 	c #EFEFED",
"y 	c #EDEEEC",
"z 	c #EBECEB",
"A 	c #EAEBE9",
"B 	c #E8E9E7",
"C 	c #E6E8E5",
"D 	c #E5E5E3",
"E 	c #E3E4E1",
"F 	c #E1E2E0",
"G 	c #DFE0DD",
"H 	c #DDDEDA",
"I 	c #DADBD8",
"J 	c #D8DAD5",
"K 	c #D5D8D3",
"L 	c #D3D5D0",
"M 	c #D0D3CE",
"N 	c #CED0CB",
"O 	c #CCCEC9",
"P 	c #CACDC8",
"Q 	c #C9CBC6",
"R 	c #C1C4BE",
"S 	c #7F817C",
"T 	c #D9DBD7",
"U 	c #DBDCD9",
"V 	c #DDDEDB",
"W 	c #E1E2DF",
"X 	c #E5E6E3",
"Y 	c #E7E7E5",
"Z 	c #E9E9E7",
"` 	c #EBEBE8",
" .	c #ECECEA",
"..	c #EAEBE8",
"+.	c #DFE0DC",
"@.	c #DBDCD8",
"#.	c #D9DAD6",
"$.	c #D7D9D4",
"%.	c #D5D7D2",
"&.	c #D1D3CE",
"*.	c #CFD1CC",
"=.	c #CDCFCA",
"-.	c #CBCDC8",
";.	c #CACCC6",
">.	c #C8CAC4",
",.	c #C6C8C2",
"'.	c #C4C6C0",
").	c #C2C4BE",
"!.	c #C0C2BC",
"~.	c #BEC0BA",
"{.	c #BCBFB8",
"].	c #BABDB6",
"^.	c #CACDC7",
"/.	c #7D7F7A",
"(.	c #204A87",
"_.	c #7C7E79",
":.	c #F3F4F2",
"<.	c #C4C7C1",
"[.	c #C3C6C0",
"}.	c #C3C6BF",
"|.	c #C3C5BF",
"1.	c #C2C5BF",
"2.	c #C2C5BE",
"3.	c #C9CBC5",
"4.	c #C8CBC5",
"5.	c #C7C9C4",
"6.	c #C6C9C3",
"7.	c #C6C8C3",
"8.	c #C0C3BD",
"9.	c #C0C3BC",
"0.	c #CDD0CB",
"a.	c #CCCFC9",
"b.	c #7A7D78",
"c.	c #D3D6D0",
"d.	c #D9DCD6",
"e.	c #D9DCD5",
"f.	c #D3D6CF",
"g.	c #CACCC7",
"h.	c #C8CAC5",
"i.	c #CBCDC7",
"j.	c #CBCEC8",
"k.	c #D4D6D2",
"l.	c #797B76",
"m.	c #ADAFA9",
"n.	c #F1F2F1",
"o.	c #3F6397",
"p.	c #D8DBD5",
"q.	c #3B6096",
"r.	c #3A5F95",
"s.	c #395F95",
"t.	c #385E94",
"u.	c #385D94",
"v.	c #476A9C",
"w.	c #5575A4",
"x.	c #5474A3",
"y.	c #5272A2",
"z.	c #4F70A0",
"A.	c #4D6F9F",
"B.	c #4C6D9F",
"C.	c #44679A",
"D.	c #335A91",
"E.	c #325991",
"F.	c #315890",
"G.	c #5B7AA7",
"H.	c #5A79A6",
"I.	c #5877A5",
"J.	c #5777A5",
"K.	c #D7D9D5",
"L.	c #787A75",
"M.	c #ABAEA8",
"N.	c #F1F1EF",
"O.	c #3E6297",
"P.	c #D8DCD5",
"Q.	c #375C93",
"R.	c #4E70A0",
"S.	c #5071A1",
"T.	c #4D6E9F",
"U.	c #4A6C9E",
"V.	c #315790",
"W.	c #5978A6",
"X.	c #5676A4",
"Y.	c #5373A2",
"Z.	c #DADCD9",
"`.	c #777974",
" +	c #AAADA6",
".+	c #3D6197",
"++	c #365C93",
"@+	c #5374A2",
"#+	c #5373A3",
"$+	c #5172A2",
"%+	c #4F70A1",
"&+	c #4C6E9F",
"*+	c #45689B",
"=+	c #5475A3",
"-+	c #DEE0DC",
";+	c #757873",
">+	c #A9ACA5",
",+	c #EDEDEB",
"'+	c #3C6196",
")+	c #D8DCD4",
"!+	c #3A6096",
"~+	c #3A6095",
"{+	c #396096",
"]+	c #395F96",
"^+	c #42679B",
"/+	c #5576A4",
"(+	c #5475A4",
"_+	c #5173A3",
":+	c #4E70A1",
"<+	c #4C6FA0",
"[+	c #3D6298",
"}+	c #365D94",
"|+	c #345C94",
"1+	c #335A93",
"2+	c #345B94",
"3+	c #5476A4",
"4+	c #5374A3",
"5+	c #5273A2",
"6+	c #747671",
"7+	c #A8AAA4",
"8+	c #EBEBE9",
"9+	c #3D6296",
"0+	c #D7DBD5",
"a+	c #D8DBD4",
"b+	c #3D6398",
"c+	c #3D6399",
"d+	c #3C6298",
"e+	c #3C6398",
"f+	c #3C6299",
"g+	c #3B6398",
"h+	c #4B6FA1",
"i+	c #5677A7",
"j+	c #5576A6",
"k+	c #5375A5",
"l+	c #5173A4",
"m+	c #5072A3",
"n+	c #396097",
"o+	c #385F97",
"p+	c #375F96",
"q+	c #365E96",
"r+	c #43689C",
"s+	c #5576A5",
"t+	c #5476A5",
"u+	c #5475A5",
"v+	c #5072A2",
"w+	c #4B6D9F",
"x+	c #4A6C9D",
"y+	c #E4E5E2",
"z+	c #737570",
"A+	c #E9EAE7",
"B+	c #3F649A",
"C+	c #40659A",
"D+	c #40659B",
"E+	c #ADBAC3",
"F+	c #D7DBD4",
"G+	c #D7DBD3",
"H+	c #D7DAD3",
"I+	c #DBDFD8",
"J+	c #DCDFD9",
"K+	c #DBDED8",
"L+	c #DBDED7",
"M+	c #DADED7",
"N+	c #ABB8C3",
"O+	c #3C639A",
"P+	c #3A6299",
"Q+	c #3B639A",
"R+	c #5274A5",
"S+	c #5476A6",
"T+	c #5375A6",
"U+	c #5174A4",
"V+	c #4F72A2",
"W+	c #4E71A2",
"X+	c #4D70A1",
"Y+	c #4C6FA1",
"Z+	c #4B6EA0",
"`+	c #4A6D9F",
" @	c #E7E8E5",
".@	c #72746F",
"+@	c #A5A8A1",
"@@	c #E6E7E5",
"#@	c #41679C",
"$@	c #C1C4BD",
"%@	c #42689E",
"&@	c #656763",
"*@	c #646663",
"=@	c #646562",
"-@	c #767875",
";@	c #757773",
">@	c #747572",
",@	c #727471",
"'@	c #727370",
")@	c #6F716D",
"!@	c #626460",
"~@	c #D6DAD2",
"{@	c #3F669D",
"]@	c #3D659C",
"^@	c #486EA1",
"/@	c #5578A8",
"(@	c #5577A8",
"_@	c #5477A7",
":@	c #5376A6",
"<@	c #5276A6",
"[@	c #5174A5",
"}@	c #5074A5",
"|@	c #5073A4",
"1@	c #4F73A4",
"2@	c #4E71A3",
"3@	c #4D70A3",
"4@	c #4B70A1",
"5@	c #4A6DA0",
"6@	c #70736E",
"7@	c #A4A7A0",
"8@	c #43699E",
"9@	c #446BA0",
"0@	c #456BA1",
"a@	c #DADDD7",
"b@	c #42699F",
"c@	c #41699F",
"d@	c #5478A9",
"e@	c #5579A9",
"f@	c #5578A9",
"g@	c #5376A7",
"h@	c #5276A7",
"i@	c #5175A7",
"j@	c #5175A6",
"k@	c #5073A6",
"l@	c #4F73A5",
"m@	c #4D72A4",
"n@	c #4D71A4",
"o@	c #4C70A2",
"p@	c #496EA1",
"q@	c #ECEDEB",
"r@	c #E2E3E0",
"s@	c #466BA0",
"t@	c #D7DAD4",
"u@	c #C1C3BD",
"v@	c #476EA2",
"w@	c #486EA3",
"x@	c #D6DAD3",
"y@	c #D9DDD6",
"z@	c #DADDD6",
"A@	c #D6D9D2",
"B@	c #456DA3",
"C@	c #4C73A6",
"D@	c #567BAB",
"E@	c #567AAB",
"F@	c #5579AB",
"G@	c #5479AA",
"H@	c #5377A9",
"I@	c #5277A8",
"J@	c #5276A8",
"K@	c #5176A7",
"L@	c #4F74A7",
"M@	c #4F73A6",
"N@	c #4D73A5",
"O@	c #4B70A3",
"P@	c #486DA1",
"Q@	c #EEEFED",
"R@	c #6E706B",
"S@	c #E0E0DD",
"T@	c #4A71A5",
"U@	c #D5D9D2",
"V@	c #4871A6",
"W@	c #557BAC",
"X@	c #577CAD",
"Y@	c #567BAC",
"Z@	c #547AAB",
"`@	c #5378AA",
" #	c #5177A9",
".#	c #4F75A8",
"+#	c #4E73A6",
"@#	c #4B71A4",
"##	c #4970A4",
"$#	c #6D6F6A",
"%#	c #DDDFDA",
"&#	c #4B70A5",
"*#	c #D6DAD4",
"=#	c #4C74A8",
"-#	c #4D74A9",
";#	c #D5D9D1",
">#	c #5279AC",
",#	c #577DAE",
"'#	c #567CAE",
")#	c #567CAD",
"!#	c #557BAD",
"~#	c #5379AC",
"{#	c #5379AB",
"]#	c #5278AB",
"^#	c #5177AA",
"/#	c #5076A9",
"(#	c #4F76A9",
"_#	c #4D74A8",
":#	c #4C73A7",
"<#	c #4970A5",
"[#	c #486FA4",
"}#	c #F1F1F0",
"|#	c #6B6E69",
"1#	c #9FA29B",
"2#	c #DADCD8",
"3#	c #4D73A7",
"4#	c #B0BEC7",
"5#	c #B1BFC7",
"6#	c #4F77AA",
"7#	c #5078AB",
"8#	c #597FB0",
"9#	c #577FB0",
"0#	c #577EB0",
"a#	c #567DAF",
"b#	c #557CAF",
"c#	c #557CAD",
"d#	c #B2C0C9",
"e#	c #AEBCC6",
"f#	c #4870A5",
"g#	c #6A6C68",
"h#	c #4E76A9",
"i#	c #4F77A9",
"j#	c #5077AA",
"k#	c #5077AB",
"l#	c #5178AB",
"m#	c #5178AC",
"n#	c #5279AD",
"o#	c #527AAD",
"p#	c #527BAE",
"q#	c #5981B3",
"r#	c #5880B1",
"s#	c #587FB1",
"t#	c #567FB1",
"u#	c #567EB0",
"v#	c #557DB0",
"w#	c #61635F",
"x#	c #60625E",
"y#	c #5F615D",
"z#	c #696B66",
"A#	c #DADBD7",
"B#	c #5179AC",
"C#	c #527AAC",
"D#	c #527BAD",
"E#	c #537BAE",
"F#	c #537CAE",
"G#	c #547DAF",
"H#	c #5982B4",
"I#	c #5780B2",
"J#	c #577FB2",
"K#	c #557FB1",
"L#	c #4770A6",
"M#	c #EFF0EE",
"N#	c #686A65",
"O#	c #DADAD6",
"P#	c #547CAF",
"Q#	c #567DB0",
"R#	c #567EB1",
"S#	c #5880B2",
"T#	c #5A84B7",
"U#	c #5A83B5",
"V#	c #5A82B5",
"W#	c #5882B4",
"X#	c #5881B4",
"Y#	c #5680B3",
"Z#	c #D5D8D1",
"`#	c #D4D8D1",
" $	c #D4D8D0",
".$	c #4771A8",
"+$	c #EDEEEB",
"@$	c #666864",
"#$	c #9A9C96",
"$$	c #5982B3",
"%$	c #B3C2C9",
"&$	c #5B85B8",
"*$	c #5A84B8",
"=$	c #5984B7",
"-$	c #5883B6",
";$	c #5782B5",
">$	c #5781B4",
",$	c #D4D7D0",
"'$	c #D3D7CF",
")$	c #4772A9",
"!$	c #EBEBEA",
"~$	c #999B95",
"{$	c #D8DAD6",
"]$	c #577FB1",
"^$	c #5880B3",
"/$	c #5B83B5",
"($	c #5B84B6",
"_$	c #5B85B7",
":$	c #5C86B7",
"<$	c #5C86B8",
"[$	c #5D87B9",
"}$	c #5E87BA",
"|$	c #618ABB",
"1$	c #628BBC",
"2$	c #608ABB",
"3$	c #608ABC",
"4$	c #5F89BB",
"5$	c #5E89BB",
"6$	c #5E88BB",
"7$	c #5D87BA",
"8$	c #5C87BA",
"9$	c #5B86BA",
"0$	c #5A85B8",
"a$	c #5883B7",
"b$	c #4874AA",
"c$	c #E8E9E6",
"d$	c #646662",
"e$	c #979A94",
"f$	c #5D87B8",
"g$	c #5E88BA",
"h$	c #5F88BB",
"i$	c #6089BC",
"j$	c #638CBD",
"k$	c #628CBE",
"l$	c #638DBE",
"m$	c #628DBF",
"n$	c #628DBE",
"o$	c #618CBF",
"p$	c #618CBE",
"q$	c #608BBE",
"r$	c #5F8ABC",
"s$	c #5E89BC",
"t$	c #5D88BB",
"u$	c #5A85BA",
"v$	c #4A76AC",
"w$	c #E5E6E4",
"x$	c #636560",
"y$	c #969993",
"z$	c #5881B3",
"A$	c #5A83B4",
"B$	c #5A83B6",
"C$	c #5C85B7",
"D$	c #6089BB",
"E$	c #618ABC",
"F$	c #618BBC",
"G$	c #628DBD",
"H$	c #648EBF",
"I$	c #648FC0",
"J$	c #6590C1",
"K$	c #6690C1",
"L$	c #6691C2",
"M$	c #6590C2",
"N$	c #648FC1",
"O$	c #638EC0",
"P$	c #628EC0",
"Q$	c #5F8ABD",
"R$	c #5D89BC",
"S$	c #B2C1C9",
"T$	c #AEBDC6",
"U$	c #4C78AE",
"V$	c #E2E4E0",
"W$	c #959792",
"X$	c #5B83B6",
"Y$	c #5F89BA",
"Z$	c #618BBD",
"`$	c #628CBD",
" %	c #638DBF",
".%	c #648EC0",
"+%	c #6490C1",
"@%	c #6791C2",
"#%	c #6892C3",
"$%	c #6893C4",
"%%	c #6993C4",
"&%	c #6894C5",
"*%	c #6994C5",
"=%	c #6995C5",
"-%	c #6693C4",
";%	c #6692C3",
">%	c #6590C3",
",%	c #648FC2",
"'%	c #618DC0",
")%	c #5F8BBE",
"!%	c #5E89BD",
"~%	c #5C88BC",
"{%	c #5A86BA",
"]%	c #5985B9",
"^%	c #5783B8",
"/%	c #5682B6",
"(%	c #5480B5",
"_%	c #537FB4",
":%	c #517DB2",
"<%	c #507BB1",
"[%	c #4E7AAF",
"}%	c #949690",
"|%	c #D6D8D4",
"1%	c #5983B6",
"2%	c #5F88BA",
"3%	c #6591C2",
"4%	c #6893C3",
"5%	c #6A95C6",
"6%	c #6A96C7",
"7%	c #6B97C8",
"8%	c #6C97C7",
"9%	c #6D97C8",
"0%	c #6C98C8",
"a%	c #6B98C8",
"b%	c #6995C7",
"c%	c #6794C5",
"d%	c #638FC1",
"e%	c #5F8CBF",
"f%	c #5E8ABD",
"g%	c #5B87BB",
"h%	c #5884B8",
"i%	c #537EB3",
"j%	c #4F7BB1",
"k%	c #DCDEDA",
"l%	c #D6D7D4",
"m%	c #5E605B",
"n%	c #91948E",
"o%	c #D6D7D3",
"p%	c #D0D2CD",
"q%	c #D2D3CF",
"r%	c #D4D5D0",
"s%	c #D7D8D4",
"t%	c #DCDDD9",
"u%	c #DEDFDC",
"v%	c #E1E1DE",
"w%	c #E2E2DF",
"x%	c #E2E3DF",
"y%	c #E0E1DE",
"z%	c #D2D3CE",
"A%	c #C7C9C3",
"B%	c #C5C7C1",
"C%	c #BFC2BB",
"D%	c #BDC0B9",
"E%	c #5C5E5A",
"F%	c #90928E",
"G%	c #CECFCC",
"H%	c #D6D8D3",
"I%	c #D8D9D4",
"J%	c #DFDFDC",
"K%	c #DFE1DD",
"L%	c #E4E4E1",
"M%	c #E4E4E3",
"N%	c #E6E7E4",
"O%	c #E7E8E4",
"P%	c #E8E8E5",
"Q%	c #E8E9E5",
"R%	c #E4E5E3",
"S%	c #E4E4E2",
"T%	c #E3E4E0",
"U%	c #DEDFDB",
"V%	c #DCDDDA",
"W%	c #D8D9D5",
"X%	c #D7D9D3",
"Y%	c #D5D7D3",
"Z%	c #969894",
"`%	c #959794",
" &	c #D3D5D1",
".&	c #C9CAC7",
"+&	c #5D5F5B",
"@&	c #90938D",
"#&	c #8B8E88",
"$&	c #888A85",
"%&	c #828480",
"&&	c #818380",
"*&	c #80827F",
"=&	c #80817D",
"-&	c #7F807C",
";&	c #7E807B",
">&	c #7B7E79",
",&	c #767873",
"'&	c #747772",
")&	c #737671",
"!&	c #727470",
"~&	c #71736E",
"{&	c #70726D",
"]&	c #6F716C",
"^&	c #6D706B",
"/&	c #6C6E6A",
"(&	c #6B6D69",
"_&	c #6A6C67",
":&	c #676A65",
"<&	c #666964",
"[&	c #636561",
"}&	c #565853",
"|&	c #7E817C",
"1&	c #575955",
"2&	c #5E605C",
"3&	c #60605D",
"4&	c #3C3C3C",
"5&	c #565656",
"6&	c #5E5E5E",
"7&	c #646464",
"8&	c #6F6F6F",
"9&	c #777777",
"0&	c #434343",
"a&	c #404040",
"b&	c #939393",
"c&	c #8F8F8F",
"d&	c #7A7A7A",
"e&	c #9F9F9F",
"f&	c #474747",
"g&	c #464646",
"h&	c #454545",
"i&	c #808080",
"j&	c #4B4B4B",
"k&	c #494949",
"l&	c #959595",
"m&	c #D5D5D5",
"n&	c #C1C1C1",
"o&	c #B6B6B6",
"p&	c #B7B7B7",
"q&	c #C2C2C2",
"r&	c #8C8C8C",
"s&	c #4A4A4A",
"t&	c #C6C6C6",
"u&	c #CACACA",
"v&	c #D1D1D1",
"w&	c #BDBDBD",
"x&	c #B9B9B9",
"y&	c #B5B5B5",
"z&	c #CDCDCD",
"A&	c #FFFFFF",
"B&	c #E7E7E7",
"C&	c #DFDFDF",
"D&	c #DBDBDB",
"E&	c #969696",
"F&	c #BABABA",
"G&	c #BEBEBE",
"H&	c #C3C3C3",
"I&	c #C8C8C8",
"J&	c #CECECE",
"K&	c #D4D4D4",
"L&	c #D0D0D0",
"M&	c #D6D6D6",
"N&	c #DDDDDD",
"O&	c #D8D8D8",
"P&	c #D2D2D2",
"Q&	c #C9C9C9",
"R&	c #C7C7C7",
"S&	c #424242",
"T&	c #EBEBEB",
"U&	c #B0B0B0",
"V&	c #717171",
"W&	c #767676",
"X&	c #747474",
"Y&	c #6C6C6C",
"Z&	c #C4C4C4",
"`&	c #CBCBCB",
" *	c #CFCFCF",
".*	c #D7D7D7",
"+*	c #DADADA",
"@*	c #E2E2E2",
"#*	c #DEDEDE",
"$*	c #626262",
"%*	c #5F5F5F",
"&*	c #606060",
"**	c #3F3F3F",
"=*	c #6A6A6A",
"-*	c #696969",
";*	c #414141",
">*	c #616161",
",*	c #484848",
"'*	c #8A8A8A",
")*	c #8B8B8B",
"!*	c #444444",
"~*	c #222222",
"{*	c #202020",
"                                                                                                ",
"                                                                                                ",
"                                                                                                ",
"                                                                                                ",
"                                                                                                ",
"  . + @ # $ % & * = - ; > , ' ) ! ~ { ] ^ / ( _ : < [ } | 1 2 3 4 5 6 7 8 9 0 a b c d e f g h   ",
"  @ i j k l l m n o p q r s q o m l k t u v w x y z A B C D E F G H I J K L M N O P Q Q Q R S   ",
"  # t T U V G W E X Y Z `  . ...Z Y D E W +.H @.#.$.%.L &.*.=.-.;.>.,.'.).!.~.{.].].].].].^./.  ",
"  $ t (.(.(.(.(.(.(.(.(.(.(.(.(.(.(.(.(.(.(.(.(.(.(.(.(.(.(.(.(.(.(.(.(.(.(.(.(.(.(.(.(.(.N _.  ",
"  % :.(.<.'.'.[.[.[.[.}.|.|.1.1.1.1.2.2.2.Q 3.4.>.5.6.7.[.8.8.9.9.[.N N N 0.=.=.a.O O O (.&.b.  ",
"  & u (.'.c.d.e.e.e.f.|.1.1.1.1.2.2.).).'.-.^.g.Q 3.h.5.R 9.9.!.!.i.0.=.=.=.=.O O O j.-.(.k.l.  ",
"  m.n.(.o.p.[.}.}.|.e.q.q.r.r.s.t.t.u.u.v.w.x.y.z.A.B.C.D.E.E.F.o.G.G.G.G.H.H.I.J.J.w.w.(.K.L.  ",
"  M.N.(.O.e.e.e.e.P.P.r.r.s.t.t.u.u.Q.Q.R.x.y.S.A.T.U.u.E.F.F.V.y.W.I.J.J.X.w.w.x.x.Y.Y.(.Z.`.  ",
"   +i (..+p.|.1.1.1.P.s.s.t.u.u.Q.Q.++u.@+#+$+%+T.&+*+D.F.V.V..+w.w.=+=+x.Y.Y.y.y.S.S.z.(.-+;+  ",
"  >+,+(.'+P.P.P.P.)+)+!+!+~+!+{+s.]+]+^+/+(+_+$+:+<+[+}+|+1+2+S.3+(+4+#+5+S.S.R.R.A.T.B.(.W 6+  ",
"  7+8+(.9+0+1.2.2.).a+b+b+c+d+e+f+f+g+h+i+j+k+l+m+h+n+o+p+q+r+s+t+u+u+_+_+m+v+:+R.<+w+x+(.y+z+  ",
"  ' A+(.B+)+)+a+a+a+a+C+D+E+F+F+F+G+H+I+J+I+K+L+M+)+N+O+P+Q+R+j+S+T+k+U+U+m+V+W+X+Y+Z+`+(. @.@  ",
"  +@@@(.#@F+).R R $@F+%@%@F+&@*@*@=@&@-@;@>@,@'@)@!@~@{@]@^@/@(@_@:@<@[@}@|@1@2@3@4@Z+5@(...6@  ",
"  7@D (.8@a+a+F+F+F+F+9@0@G+G+H+H+H+P.K+L+M+a@a@a+~@~@b@c@d@e@f@d@g@h@i@j@k@l@m@n@o@4@p@(.q@)@  ",
"  ~ r@(.s@t@$@u@u@8.F+v@w@H+H+H+H+x@y@M+a@a@z@y@~@~@A@B@C@D@E@F@G@H@I@J@K@L@M@N@m@O@O@P@(.Q@R@  ",
"  { S@(.w@F+F+F+F+G+G+T@T@H+H+x@x@x@z@a@z@y@d.F+A@A@U@V@W@X@Y@Z@Z@`@`@ # #.#L@+#N@@###w@(.w $#  ",
"  ] %#(.&#*#8.8.8.9.H+=#-#x@x@x@x@H+z@y@e.e.P.~@U@U@;#>#,#,#'#)#!#~#{#]#^#/#(#_#:#T@<#[#(.}#|#  ",
"  1#2#(.3#4#G+G+H+H+5#6#7#x@x@~@~@F+d.e.P.P.G+U@;#;#;#8#9#0#a#b#c#d#F+G+H+H+H+x@x@x@e#f#(.v g#  ",
"  / 2#(.h#i#j#k#l#m#n#o#p#~@~@~@~@a+P.)+a+a+~@;#;#;#~@q#r#s#t#u#v#x@!@w#w#x#x#x#x#y#A@f#(.}#z#  ",
"  ( A#(.7#B#C#D#E#F#G#G#v#~@~@~@~@a+a+F+F+x@;#;#;#;#x@H#H#q#I#J#K#~@A@U@U@;#;#;#;#;#;#L#(.M#N#  ",
"  _ O#(.o#E#P#v#Q#R#J#J#S#~@~@A@~@F+F+H+H+U@;#;#;#;#A@T#U#V#W#X#Y#;#;#;#;#Z#Z#`# $ $ $.$(.+$@$  ",
"  #$#.(.b#v#u#t#S#S#$$H#U#%$A@U@~@H+x@~@~@;#;#;#Z#;#%$&$*$=$-$;$>$ $ $ $ $ $ $,$,$'$'$)$(.!$&@  ",
"  ~${$(.u#]$^$H#H#/$($_$:$<$[$}$|$1$1$1$2$3$3$4$5$5$6$7$8$9$0$=$a$ $,$,$'$'$'$'$'$'$'$b$(.c$d$  ",
"  e$J (.I#H#H#/$($_$f$[$g$h$i$3$j$k$l$l$m$l$n$m$o$p$p$q$r$s$t$8$u$,$'$'$'$'$'$'$'$'$'$v$(.w$x$  ",
"  y$K.(.z$A$B$C$:$[$g$D$E$F$G$l$H$I$J$J$K$L$L$M$J$J$N$O$P$m$q$Q$R$S$'$'$'$'$'$'$'$'$T$U$(.V$w#  ",
"  W$$.(.H#X$_$f$[$Y$i$Z$`$ %.%+%L$@%#%$%%%&%*%=%=%$%-%;%>%,%P$'%)%!%~%{%]%^%/%(%_%:%<%[%(.S@x#  ",
"  }%|%(.1%_$C$[$2%E$F$k$ %I$3%@%4%%%5%6%7%8%9%0%a%7%6%b%c%-%M$d%'%e%f%~%g%]%h%/%(%i%:%j%(.k%y#  ",
"  3 l%(.(.(.(.(.(.(.(.(.(.(.(.(.(.(.(.(.(.(.(.(.(.(.(.(.(.(.(.(.(.(.(.(.(.(.(.(.(.(.(.(.(.A#m%  ",
"  n%o%i.O N p%q%r%%.s%#.A#t%H u%S@v%W w%x%w%W y%G u%H t%A#{$s%%.L z%p%N O g.4.A%B%|.$@C%D%|%E%  ",
"  F%G%H%I%#.2#t%V J%K%W V$L%M%w$N%O%P%c$c$c$Q% @N%w$R%S%T%x%y%+.U%V%U T W%I%X%H%Y%Z%E%`% &.&+&  ",
"  @&6 8 #&0 a $&c d e f %&&&*&=&-&;&/.>&b.l.L.`.,&'&)&!&~&{&]&^&/&(&_&z#:&<&&@d$[&}&|&1&2&y#3&  ",
"                                          4&5&6&7&8&9&0&                                        ",
"                                          a&b&c&d&d&d&0&                                        ",
"                                          0&e&c&d&d&d&0&                                        ",
"                                  f&g&g&g&h&i&i&i&i&i&0&g&g&g&f&                                ",
"      j&k&f&f&f&f&f&f&f&f&f&f&f&k&l&m&n&o&p&q&q&q&q&q&o&o&o&o&r&s&f&f&f&f&f&f&f&f&f&f&k&s&      ",
"      t&u&v&u&t&n&w&x&y&y&y&y&y&0&z&A&B&n&C&C&C&C&C&C&C&C&D&e&E&k&y&y&y&y&o&F&G&H&I&J&m&K&      ",
"      L&M&N&O&P&J&Q&R&H&H&H&H&H&S&b&T&U&V&W&W&W&W&W&W&W&W&X&8&Y&f&H&H&H&H&Z&R&`& *.*+*@*#*      ",
"            $*%*6&%*&*$*$*$*$*$***=*Y&Y&Y&Y&Y&Y&Y&Y&Y&Y&Y&Y&Y&-*;*$*$*$*$*$*&*6&%*>*$*          ",
"      k&,*h&h&0&S&S&;*;*;*;*;*;*a&Y&'*)*)*)*)*)*)*)*)*)*)*)*'*8&a&;*;*;*;*;*;*S&0&!*!*f&f&      ",
"                                ~*;*a&a&a&a&a&a&a&a&a&a&a&a&a&a&{*                              ",
"                                                                                                ",
"                                                                                                "};
