/* XPM */
static char * sign_error_xpm[] = {
"16 16 11 1",
" 	c None",
".	c #B00000",
"+	c #C81E1E",
"@	c #FE6464",
"#	c #FA5F5F",
"$	c #F35757",
"%	c #FAFAF7",
"&	c #EC4F4F",
"*	c #E54646",
"=	c #DE3E3E",
"-	c #DA3939",
"                ",
"                ",
"      .++.      ",
"     ..@@..     ",
"     .@@@@.     ",
"    ..@@@@..    ",
"    .######.    ",
"   ..$$%%$$..   ",
"   .&&&%%&&&.   ",
"  ..***%%***..  ",
"  .==========.  ",
" ..----%%----.. ",
" .------------. ",
" .------------. ",
" .............. ",
"                "};
