/* XPM */
static char * connectionunk_xpm[] = {
"16 16 10 1",
" 	c None",
".	c #1A3E89",
"+	c #658BDC",
"@	c #6388D8",
"#	c #FFFFFF",
"$	c #6085D3",
"%	c #5D81CD",
"&	c #597CC7",
"*	c #5679C2",
"=	c #5476BE",
"                ",
"    ........    ",
"   ..++++++..   ",
"  ..++++++++..  ",
" ..++++++++++.. ",
" .++++++++++++. ",
" .@@@@####@@@@. ",
" .$$$$$$$##$$$. ",
" .%%%%%###%%%%. ",
" .&&&&&&&&&&&&. ",
" .*****##*****. ",
" ..==========.. ",
"  ..========..  ",
"   ..======..   ",
"    ........    ",
"                "};
