/* XPM */
static char * quickrdp_xpm[] = {
"32 32 604 2",
"  	c None",
". 	c #AFB3AB",
"+ 	c #ADB0A8",
"@ 	c #AAADA7",
"# 	c #A8ABA4",
"$ 	c #A6AAA2",
"% 	c #A5A8A0",
"& 	c #A2A59F",
"* 	c #A0A39D",
"= 	c #9EA29B",
"- 	c #9E9F99",
"; 	c #9C9E97",
"> 	c #999C96",
", 	c #979A93",
"' 	c #969892",
") 	c #939790",
"! 	c #92958F",
"~ 	c #91948D",
"{ 	c #8F918B",
"] 	c #8D9089",
"^ 	c #8B8E88",
"/ 	c #8A8C87",
"( 	c #888B84",
"_ 	c #868983",
": 	c #858882",
"< 	c #848580",
"[ 	c #82847F",
"} 	c #80837D",
"| 	c #7E817B",
"1 	c #7D7F7A",
"2 	c #E4E5E4",
"3 	c #F7F7F4",
"4 	c #F9F8F6",
"5 	c #FAF9F7",
"6 	c #FBFBF9",
"7 	c #FDFCFA",
"8 	c #FEFDFB",
"9 	c #FFFEFD",
"0 	c #FFFFFC",
"a 	c #FBFAF8",
"b 	c #F9F9F5",
"c 	c #F7F6F4",
"d 	c #F5F4F1",
"e 	c #F2F2EF",
"f 	c #F0F0EC",
"g 	c #EDEDE9",
"h 	c #EAEAE6",
"i 	c #E7E7E3",
"j 	c #E4E4E0",
"k 	c #E1E1DB",
"l 	c #DDDED8",
"m 	c #D9DBD4",
"n 	c #D5D7D0",
"o 	c #D2D3CC",
"p 	c #CFD1CA",
"q 	c #CECFC8",
"r 	c #CED0C9",
"s 	c #B6B9B3",
"t 	c #F1EFEA",
"u 	c #365B8F",
"v 	c #395E93",
"w 	c #3A5F94",
"x 	c #3B6094",
"y 	c #3C6095",
"z 	c #3C6196",
"A 	c #3D6196",
"B 	c #3C6195",
"C 	c #3B5F94",
"D 	c #3A5E93",
"E 	c #395E92",
"F 	c #395D92",
"G 	c #385D91",
"H 	c #385C91",
"I 	c #375C90",
"J 	c #375B90",
"K 	c #355A8E",
"L 	c #34598D",
"M 	c #34588C",
"N 	c #33588C",
"O 	c #33578B",
"P 	c #32578B",
"Q 	c #C5C5BC",
"R 	c #F2F0E9",
"S 	c #35598C",
"T 	c #D6D4C8",
"U 	c #D4D3C9",
"V 	c #D3D3C8",
"W 	c #D1D1C4",
"X 	c #D1CFC3",
"Y 	c #D0D0C3",
"Z 	c #D0CFC2",
"` 	c #D8D7CC",
" .	c #D7D6CA",
"..	c #D6D5C9",
"+.	c #D5D4C8",
"@.	c #D4D2C7",
"#.	c #CFCEC2",
"$.	c #CECDC1",
"%.	c #CECDC0",
"&.	c #DCDBD0",
"*.	c #DBDACF",
"=.	c #DAD9CE",
"-.	c #DFDCCF",
";.	c #395D90",
">.	c #CAC9C0",
",.	c #F0EFE8",
"'.	c #1A4583",
").	c #C0C8CB",
"!.	c #C5C8C2",
"~.	c #C6C9C2",
"{.	c #CDCEC7",
"].	c #7189A9",
"^.	c #56749E",
"/.	c #55739D",
"(.	c #54739D",
"_.	c #54739C",
":.	c #53719C",
"<.	c #5C79A1",
"[.	c #6D87AB",
"}.	c #6B84A9",
"|.	c #6782A7",
"1.	c #6580A7",
"2.	c #5B78A0",
"3.	c #4E6E99",
"4.	c #54729B",
"5.	c #738CAF",
"6.	c #728BAE",
"7.	c #718AAD",
"8.	c #6F88AC",
"9.	c #6E88AC",
"0.	c #224C88",
"a.	c #CDCDC4",
"b.	c #EFEDE6",
"c.	c #134081",
"d.	c #BAC3C9",
"e.	c #D5D8D1",
"f.	c #D8DCD3",
"g.	c #5978A2",
"h.	c #395E94",
"i.	c #375D94",
"j.	c #375D93",
"k.	c #375C93",
"l.	c #365B92",
"m.	c #4A6C9D",
"n.	c #5373A2",
"o.	c #5071A1",
"p.	c #4C6E9E",
"q.	c #4B6C9E",
"r.	c #335991",
"s.	c #30578F",
"t.	c #4D6D9F",
"u.	c #5877A5",
"v.	c #5676A4",
"w.	c #5576A4",
"x.	c #5474A3",
"y.	c #1D4786",
"z.	c #D1D0C8",
"A.	c #ECEAE3",
"B.	c #B9C3C8",
"C.	c #D4D8D1",
"D.	c #D8DCD2",
"E.	c #395F95",
"F.	c #385E95",
"G.	c #385E94",
"H.	c #395E95",
"I.	c #5072A1",
"J.	c #5374A3",
"K.	c #4D6FA0",
"L.	c #42669A",
"M.	c #345B92",
"N.	c #325992",
"O.	c #375D95",
"P.	c #5172A1",
"Q.	c #4E70A0",
"R.	c #4D6F9F",
"S.	c #4E6F9F",
"T.	c #1B4685",
"U.	c #D5D4CC",
"V.	c #E9E7DF",
"W.	c #144081",
"X.	c #B9C4C9",
"Y.	c #C4C7C0",
"Z.	c #C5C8C1",
"`.	c #CCCEC6",
" +	c #5D7CA4",
".+	c #41669A",
"++	c #5C7BA6",
"@+	c #5E7EA7",
"#+	c #5E7DA7",
"$+	c #6080A8",
"%+	c #728DB3",
"&+	c #728DB2",
"*+	c #6F8BB1",
"=+	c #6E8AB0",
"-+	c #5576A2",
";+	c #375E96",
">+	c #355E96",
",+	c #4B6EA0",
"'+	c #5476A5",
")+	c #5374A5",
"!+	c #5173A3",
"~+	c #5072A3",
"{+	c #4F72A2",
"]+	c #4D70A0",
"^+	c #4C6FA0",
"/+	c #4B6D9F",
"(+	c #1A4585",
"_+	c #D9D7CF",
":+	c #E5E4DC",
"<+	c #154183",
"[+	c #BAC5CA",
"}+	c #C4C6C0",
"|+	c #C4C7C1",
"1+	c #CBCEC5",
"2+	c #607FA8",
"3+	c #607FAA",
"4+	c #8D8E87",
"5+	c #767873",
"6+	c #767772",
"7+	c #7A7C76",
"8+	c #868882",
"9+	c #83847F",
"0+	c #7B7D77",
"a+	c #C7C9BF",
"b+	c #335D98",
"c+	c #41689D",
"d+	c #5578A8",
"e+	c #5476A6",
"f+	c #5275A5",
"g+	c #5174A4",
"h+	c #5073A4",
"i+	c #4F72A3",
"j+	c #4D70A2",
"k+	c #4B6FA1",
"l+	c #DCDAD3",
"m+	c #E3E1D9",
"n+	c #154284",
"o+	c #BAC4C9",
"p+	c #D3D7D0",
"q+	c #D7DAD2",
"r+	c #6282AA",
"s+	c #6382AB",
"t+	c #E0E3DA",
"u+	c #DFE2DA",
"v+	c #DEE2DA",
"w+	c #E0E4DD",
"x+	c #E2E5DE",
"y+	c #E1E5DE",
"z+	c #E1E4DE",
"A+	c #E2E3D7",
"B+	c #38619C",
"C+	c #5176A8",
"D+	c #5579A9",
"E+	c #5478A9",
"F+	c #5276A7",
"G+	c #5175A7",
"H+	c #5074A6",
"I+	c #4F73A5",
"J+	c #4C72A4",
"K+	c #4C70A2",
"L+	c #4B70A1",
"M+	c #194585",
"N+	c #DEDDD6",
"O+	c #DFDDD5",
"P+	c #174485",
"Q+	c #BBC5CA",
"R+	c #D7DAD1",
"S+	c #6686AD",
"T+	c #6685AD",
"U+	c #DADCD4",
"V+	c #D6DAD3",
"W+	c #D5D9D2",
"X+	c #DADDD6",
"Y+	c #D9DCD6",
"Z+	c #D7DBD5",
"`+	c #D5D9D1",
" @	c #DFE0D5",
".@	c #3F6AA3",
"+@	c #567BAC",
"@@	c #557AAB",
"#@	c #5379AA",
"$@	c #5277A9",
"%@	c #5076A8",
"&@	c #4F73A6",
"*@	c #4D72A5",
"=@	c #4B71A3",
"-@	c #4970A4",
";@	c #E0DFD8",
">@	c #DBDBD1",
",@	c #184586",
"'@	c #B7C3CA",
")@	c #C5C7BF",
"!@	c #C6C8C0",
"~@	c #CBCDC4",
"{@	c #6788B1",
"]@	c #6989B2",
"^@	c #D9DCD4",
"/@	c #D6D9D2",
"(@	c #D8DCD5",
"_@	c #D8DBD4",
":@	c #D6DAD2",
"<@	c #DEDFD3",
"[@	c #4B74AA",
"}@	c #577DAE",
"|@	c #557CAE",
"1@	c #547AAC",
"2@	c #6889B3",
"3@	c #708FB6",
"4@	c #6E8DB4",
"5@	c #6D8DB4",
"6@	c #6B8BB3",
"7@	c #6A8AB1",
"8@	c #587BAA",
"9@	c #184585",
"0@	c #E1DFD9",
"a@	c #D9D8CF",
"b@	c #1B4887",
"c@	c #5D82AD",
"d@	c #6C8CB3",
"e@	c #6B8BB4",
"f@	c #547BAD",
"g@	c #6C8DB4",
"h@	c #D9DCD3",
"i@	c #D7DAD3",
"j@	c #D7DBD3",
"k@	c #D4D8D0",
"l@	c #507AAF",
"m@	c #577EB0",
"n@	c #557EB0",
"o@	c #4C76AC",
"p@	c #C6C9C0",
"q@	c #71736D",
"r@	c #73756F",
"s@	c #73746E",
"t@	c #72746E",
"u@	c #6B6C67",
"v@	c #BCC8CF",
"w@	c #164384",
"x@	c #E1DED9",
"y@	c #D9D7CE",
"z@	c #1C4988",
"A@	c #527AAD",
"B@	c #527AAC",
"C@	c #537BAE",
"D@	c #537CAE",
"E@	c #547DAF",
"F@	c #7090B7",
"G@	c #D9DCD2",
"H@	c #DFE0D4",
"I@	c #507CB2",
"J@	c #5981B3",
"K@	c #5780B2",
"L@	c #4C78AF",
"M@	c #E0E1D5",
"N@	c #DDE1DA",
"O@	c #DDE1D9",
"P@	c #B8C3C8",
"Q@	c #164385",
"R@	c #D8D6CD",
"S@	c #1D4989",
"T@	c #557DB0",
"U@	c #557DAF",
"V@	c #577FB1",
"W@	c #5881B3",
"X@	c #6D90B8",
"Y@	c #DADCD2",
"Z@	c #DDDED3",
"`@	c #DFDFD4",
" #	c #DEDFD4",
".#	c #DDDED2",
"+#	c #DEDED2",
"@#	c #CDD3CE",
"##	c #537FB6",
"$#	c #5983B6",
"%#	c #5782B5",
"&#	c #4D7AB1",
"*#	c #DCDED2",
"=#	c #D4D7D0",
"-#	c #D3D7CF",
";#	c #B7C3C8",
">#	c #164485",
",#	c #DBD9D3",
"'#	c #D6D5CC",
")#	c #1E4A89",
"!#	c #5880B2",
"~#	c #5880B3",
"{#	c #5982B4",
"]#	c #5B83B5",
"^#	c #5B85B7",
"/#	c #5581B7",
"(#	c #5682B8",
"_#	c #5985BA",
":#	c #5A85BA",
"<#	c #5885BA",
"[#	c #5884BA",
"}#	c #5784BA",
"|#	c #5683BA",
"1#	c #5D88BA",
"2#	c #5B86BA",
"3#	c #5A85B8",
"4#	c #4F7DB6",
"5#	c #DDDDD1",
"6#	c #D3D6CF",
"7#	c #D2D6CE",
"8#	c #D2D7CE",
"9#	c #B8C4C8",
"0#	c #164586",
"a#	c #D7D6CE",
"b#	c #D5D4CB",
"c#	c #1E4B8A",
"d#	c #5A83B4",
"e#	c #5A83B5",
"f#	c #5B85B6",
"g#	c #5C86B8",
"h#	c #5E88BA",
"i#	c #6089BB",
"j#	c #618BBC",
"k#	c #628CBD",
"l#	c #638EBF",
"m#	c #648FC0",
"n#	c #6590C1",
"o#	c #648FC1",
"p#	c #638EC0",
"q#	c #618DBF",
"r#	c #618CBE",
"s#	c #5F89BD",
"t#	c #5583BA",
"u#	c #CBD1CD",
"v#	c #DCDDD0",
"w#	c #DBDCD0",
"x#	c #DBDDD0",
"y#	c #DEDED1",
"z#	c #A4B6C4",
"A#	c #184687",
"B#	c #D3D2CA",
"C#	c #D4D3CA",
"D#	c #1E4B8B",
"E#	c #5D85B8",
"F#	c #5D87B8",
"G#	c #618ABC",
"H#	c #628CBE",
"I#	c #648EBF",
"J#	c #6692C3",
"K#	c #6993C3",
"L#	c #6A94C5",
"M#	c #6B95C6",
"N#	c #6A96C7",
"O#	c #6B97C7",
"P#	c #6995C6",
"Q#	c #6894C5",
"R#	c #6691C4",
"S#	c #6490C1",
"T#	c #618DC0",
"U#	c #5886BD",
"V#	c #5382BA",
"W#	c #5180B8",
"X#	c #4F7EB6",
"Y#	c #4C7BB4",
"Z#	c #4978B1",
"`#	c #4C79B1",
" $	c #1C4989",
".$	c #D0CDC6",
"+$	c #D4D2CA",
"@$	c #08387E",
"#$	c #1F4C8C",
"$$	c #1F4C8B",
"%$	c #204C8C",
"&$	c #204D8C",
"*$	c #204E8D",
"=$	c #214E8D",
"-$	c #214E8E",
";$	c #214F8D",
">$	c #224F8E",
",$	c #214F8E",
"'$	c #204D8D",
")$	c #1F4D8C",
"!$	c #1E4B8C",
"~$	c #08387F",
"{$	c #CCCBC2",
"]$	c #C6C7C3",
"^$	c #DDDCD3",
"/$	c #E0DFD6",
"($	c #E4E2D9",
"_$	c #E6E4DB",
":$	c #EBE9E1",
"<$	c #EDEBE3",
"[$	c #F2EFE7",
"}$	c #F3F1E9",
"|$	c #F3F0E9",
"1$	c #F1EFE8",
"2$	c #F0EEE6",
"3$	c #EEECE4",
"4$	c #EDEAE2",
"5$	c #EAE8E0",
"6$	c #E7E6DD",
"7$	c #E4E3DA",
"8$	c #E2E0D7",
"9$	c #DFDED5",
"0$	c #DCDBD2",
"a$	c #D9D9CF",
"b$	c #D8D7CD",
"c$	c #CBCABF",
"d$	c #B8B8AD",
"e$	c #CCCCC0",
"f$	c #BBBDB9",
"g$	c #979A94",
"h$	c #9A9D97",
"i$	c #999B96",
"j$	c #989A95",
"k$	c #979994",
"l$	c #969893",
"m$	c #959692",
"n$	c #949692",
"o$	c #939492",
"p$	c #939490",
"q$	c #92938F",
"r$	c #91928E",
"s$	c #8E918C",
"t$	c #939590",
"u$	c #90918C",
"v$	c #8D8F8A",
"w$	c #898C88",
"x$	c #8B8D89",
"y$	c #868782",
"z$	c #848681",
"A$	c #80827E",
"B$	c #7E807B",
"C$	c #7C7F7A",
"D$	c #7B7D78",
"E$	c #7A7C78",
"F$	c #646661",
"G$	c #727570",
"H$	c #70726E",
"I$	c #6E6F6C",
"J$	c #403F40",
"K$	c #656565",
"L$	c #696869",
"M$	c #7A7A7A",
"N$	c #393939",
"O$	c #545454",
"P$	c #989898",
"Q$	c #787878",
"R$	c #7D7D7D",
"S$	c #3E3E3E",
"T$	c #535353",
"U$	c #606060",
"V$	c #5B5B5B",
"W$	c #646464",
"X$	c #8C8C8C",
"Y$	c #8D8D8D",
"Z$	c #909090",
"`$	c #565656",
" %	c #5A5A5A",
".%	c #AAAAAA",
"+%	c #B1B1B1",
"@%	c #ABABAB",
"#%	c #A6A6A6",
"$%	c #A1A1A1",
"%%	c #9C9C9C",
"&%	c #9B9B9B",
"*%	c #868686",
"=%	c #FBFBFB",
"-%	c #CACACA",
";%	c #E2E2E2",
">%	c #E0E0E0",
",%	c #E1E1E1",
"'%	c #A4A4A4",
")%	c #525252",
"!%	c #9E9E9E",
"~%	c #A3A3A3",
"{%	c #A9A9A9",
"]%	c #B0B0B0",
"^%	c #B4B4B4",
"/%	c #D6D6D6",
"(%	c #E4E4E4",
"_%	c #BEBEBE",
":%	c #B9B9B9",
"<%	c #707070",
"[%	c #CBCBCB",
"}%	c #727272",
"|%	c #6C6C6C",
"1%	c #6B6B6B",
"2%	c #6A6A6A",
"3%	c #454545",
"4%	c #B8B8B8",
"5%	c #B3B3B3",
"6%	c #B7B7B7",
"7%	c #BFBFBF",
"8%	c #C9C9C9",
"9%	c #E5E5E5",
"0%	c #404040",
"a%	c #474747",
"b%	c #444444",
"c%	c #434343",
"d%	c #636363",
"e%	c #888888",
"f%	c #898989",
"g%	c #858585",
"h%	c #4B4B4B",
"i%	c #464646",
"j%	c #424242",
"k%	c #363636",
"l%	c #3A3A3A",
"m%	c #232323",
"                                                                ",
"                                                                ",
"                                                                ",
"  . + @ # $ % & * = - ; > , ' ) ! ~ { ] ^ / ( _ : < [ } | 1 1   ",
"  2 3 4 5 6 7 8 9 0 8 7 a b c d e f g h i j k l m n o p q r s   ",
"  t u v w x y z A A A B y C D E F G H I J u K L M N O P P P Q   ",
"  R S T U V V W X Y Y Y Z Z `  ...+.@.#.$.%.+.&.&.*.*.=.-.;.>.  ",
"  ,.'.).!.~.{.].^./.(._.:.<.[.}.|.1.2.3.3.4.5.6.6.7.8.8.9.0.a.  ",
"  b.c.d.e.e.f.g.h.i.j.k.l.m.n.o.p.q.r.s.s.t.u.v.w.x.x.n.n.y.z.  ",
"  A.c.B.C.C.D.g.E.E.F.G.H.I.J.o.K.L.M.N.O.J.J.n.P.o.Q.R.S.T.U.  ",
"  V.W.X.Y.Z.`. +.+++@+#+$+%+&+*+=+-+;+>+,+'+)+!+~+{+]+^+/+(+_+  ",
"  :+<+[+}+|+1+2+3+4+5+6+7+8+< 9+0+a+b+c+d+e+f+g+h+i+j+k+,+(+l+  ",
"  m+n+o+p+p+q+r+s+t+u+v+w+x+y+z+v+A+B+C+D+E+F+G+H+I+J+K+L+M+N+  ",
"  O+P+Q+p+p+R+S+T+U+V+W+X+X+Y+Z+`+ @.@+@@@#@$@C+%@&@*@=@-@M+;@  ",
"  >@,@'@)@!@~@{@]@^@W+/@Y+(@_@:@C.<@[@}@|@1@2@3@4@5@6@7@8@9@0@  ",
"  a@b@c@d@d@e@f@g@h@`+i@(@_@j@`+k@<@l@m@n@o@p@q@r@s@t@u@v@w@x@  ",
"  y@z@A@B@C@D@E@F@G@`+i@i@i@W+k@k@H@I@J@K@L@M@N@O@O@O@O@P@Q@N+  ",
"  R@S@T@U@V@V@W@X@Y@Z@`@ #<@.#.#+#@###$#%#&#*#k@k@k@=#-#;#>#,#  ",
"  '#)#!#~#{#]#^#^#/#(#_#:#<#[#}#|#}#1#2#3#4#5#6#7#7#8#7#9#0#a#  ",
"  b#c#d#e#f#g#h#i#j#k#l#m#m#n#o#p#p#q#r#s#t#u#v#w#w#x#y#z#A#B#  ",
"  C#D#E#F#h#G#H#I#n#J#K#L#M#N#O#O#P#Q#R#S#T#U#V#W#X#Y#Z#`# $.$  ",
"  +$@$#$$$%$&$&$&$*$=$=$=$-$;$>$,$,$-$=$=$'$'$'$)$#$#$!$!$~${$  ",
"  ]$*.^$/$($_$V.:$<$b.[$R }$|$1$2$3$4$5$6$7$8$9$0$a$b$c$d$e$f$  ",
"  g$h$i$j$k$l$m$n$o$p$q$r$s$t$u$v$w$x$y$z$[ A$B$C$D$E$F$G$H$I$  ",
"                            J$K$L$M$N$                          ",
"                            O$P$Q$R$S$                          ",
"                      T$U$V$W$X$Y$Z$`$ % %                      ",
"    .%+%@%#%$%%%&%&%*%#%=%-%;%;%;%;%>%,%'%)%$%&%&%!%~%{%]%^%    ",
"    /%(%_%:%^%+%+%+%P$<%[%}%|%1%1%1%1%2%2%3%4%+%+%5%6%7%8%9%    ",
"    3%0%a%b%3%3%3%3%c%d%e%f%f%f%f%f%f%f%g%h%3%3%3%b%3%i%i%j%    ",
"                      k%N$N$N$N$N$N$N$N$l%m%                    ",
"                                                                "};
